<svg xmlns="http://www.w3.org/2000/svg" viewBox="0 0 574.71 179.85"><defs><style>.cls-1{fill:#e94d85;}</style></defs><g id="Layer_2" data-name="Layer 2"><g id="Layer_1-2" data-name="Layer 1"><polygon points="53.97 38.29 27.24 38.29 27.24 62.32 3.46 62.32 3.46 2.11 27.24 2.11 27.24 23.11 53.97 23.11 53.97 2.11 77.75 2.11 77.75 62.32 53.97 62.32 53.97 38.29"/><path d="M135.6,2.11H106.43L80.79,62.32h25.3l2.53-6.91h24.79l2.53,6.91h25.3ZM113.85,40.73l7.08-20.41h.17l7.09,20.41Z"/><rect x="164.53" y="2.11" width="23.78" height="60.21"/><path d="M272.26,59.08a11.93,11.93,0,0,1-1-3.84l-1-13.16A10.8,10.8,0,0,0,268,35.8a9.19,9.19,0,0,0-4.59-3v-.16a12.4,12.4,0,0,0,4.39-2.2,12.16,12.16,0,0,0,2.86-3.28,13.47,13.47,0,0,0,1.56-4,19.81,19.81,0,0,0,.47-4.3,17.11,17.11,0,0,0-.64-4.76A16.77,16.77,0,0,0,270.32,10a17,17,0,0,0-2.61-3.38,12.51,12.51,0,0,0-3.17-2.32,20.21,20.21,0,0,0-5.77-1.69,59.45,59.45,0,0,0-8.48-.5H200.2V62.32H224V43.77h16.87q3.28,0,4.64,1.9A9.81,9.81,0,0,1,247,50.94c.12,1.74.2,3.23.26,4.47s.12,2.29.21,3.16a20.82,20.82,0,0,0,.3,2.19,5.39,5.39,0,0,0,.5,1.56h26A14,14,0,0,1,272.26,59.08ZM245.91,27.2c-1,.92-2.7,1.39-5.06,1.39H224V17.29h16.53a10,10,0,0,1,4.94,1.1c1.32.73,2,2.24,2,4.55A5.52,5.52,0,0,1,245.91,27.2Z"/><polygon points="281.33 2.11 305.11 2.11 305.11 46.13 341.96 46.13 341.96 62.32 281.33 62.32 281.33 2.11"/><polygon points="348.45 2.11 412.46 2.11 412.46 16.78 372.23 16.78 372.23 24.88 409.59 24.88 409.59 39.55 372.23 39.55 372.23 47.65 412.46 47.65 412.46 62.32 348.45 62.32 348.45 2.11"/><path d="M433.8,36.77a25.09,25.09,0,0,1-7.51-2.24,16.89,16.89,0,0,1-5.1-3.75,14,14,0,0,1-2.91-5,18.8,18.8,0,0,1-.93-6,16.39,16.39,0,0,1,2.7-9.66,18.92,18.92,0,0,1,7.38-6.11A36.66,36.66,0,0,1,438.48.89,99.59,99.59,0,0,1,452.18,0a97.64,97.64,0,0,1,17.21,1.31A41.21,41.21,0,0,1,481.23,5.1a18,18,0,0,1,7,6.16,18,18,0,0,1,2.66,8.47H463.23a4.5,4.5,0,0,0-1-3,6.64,6.64,0,0,0-2.66-1.81,14.46,14.46,0,0,0-3.54-1,25.35,25.35,0,0,0-3.88-.3c-3.54,0-6,.4-7.42,1.18A3.52,3.52,0,0,0,442.65,18a3.09,3.09,0,0,0,.68,2.07,3.84,3.84,0,0,0,2.44,1l28.42,4.22q9.1,1.35,14.25,5.61t5.15,11.93q0,11.05-9.32,16.32t-29.39,5.27q-6.83,0-13.66-.67a47.17,47.17,0,0,1-12.36-2.83,22.16,22.16,0,0,1-8.94-6.11q-3.41-4-3.41-10.63h28.67a4.73,4.73,0,0,0,2.53,4.3c1.75.84,4.44,1.27,8.1,1.27s6.21-.45,7.51-1.35a4.13,4.13,0,0,0,1.93-3.54,3.8,3.8,0,0,0-.93-2.49A5.38,5.38,0,0,0,461,40.82Z"/><path d="M514.92,36.77a25.11,25.11,0,0,1-7.5-2.24,16.89,16.89,0,0,1-5.1-3.75,14,14,0,0,1-2.91-5,18.8,18.8,0,0,1-.93-6,16.39,16.39,0,0,1,2.7-9.66,18.92,18.92,0,0,1,7.38-6.11A36.66,36.66,0,0,1,519.61.89,99.59,99.59,0,0,1,533.31,0a97.52,97.52,0,0,1,17.2,1.31A41.29,41.29,0,0,1,562.36,5.1a18.11,18.11,0,0,1,7,6.16A18,18,0,0,1,572,19.73H544.36a4.5,4.5,0,0,0-1-3,6.71,6.71,0,0,0-2.66-1.81,14.58,14.58,0,0,0-3.54-1,25.45,25.45,0,0,0-3.88-.3c-3.54,0-6,.4-7.42,1.18A3.52,3.52,0,0,0,523.78,18a3.09,3.09,0,0,0,.67,2.07,3.87,3.87,0,0,0,2.45,1l28.42,4.22q9.1,1.35,14.25,5.61t5.14,11.93q0,11.05-9.31,16.32T536,64.43q-6.84,0-13.66-.67A47.08,47.08,0,0,1,510,60.93a22.16,22.16,0,0,1-8.94-6.11q-3.41-4-3.41-10.63h28.67a4.73,4.73,0,0,0,2.53,4.3c1.74.84,4.44,1.27,8.09,1.27s6.21-.45,7.51-1.35a4.14,4.14,0,0,0,1.94-3.54,3.86,3.86,0,0,0-.93-2.49,5.4,5.4,0,0,0-3.37-1.56Z"/><path class="cls-1" d="M3.88,115.51Q4,123.94,9.4,128.66T27,133.38a34.75,34.75,0,0,0,9.41-1.09,18.49,18.49,0,0,0,6.24-2.95,11.1,11.1,0,0,0,3.46-4.26,12.62,12.62,0,0,0,1-5.1,12.43,12.43,0,0,0-.72-4.43,7.69,7.69,0,0,0-2.48-3.33,16.43,16.43,0,0,0-4.85-2.53,64.83,64.83,0,0,0-7.8-2.11l-11.22-2.36a55.88,55.88,0,0,1-8.43-2.32A19.21,19.21,0,0,1,6,99.74a10.79,10.79,0,0,1-3.17-4.39,16.55,16.55,0,0,1-1-5.9,13.47,13.47,0,0,1,1.47-6.24,13.87,13.87,0,0,1,4.35-4.94A22.12,22.12,0,0,1,14.8,75a36.76,36.76,0,0,1,9.82-1.18A46.08,46.08,0,0,1,34.87,74.9a22.79,22.79,0,0,1,7.89,3.33A15.87,15.87,0,0,1,47.86,84a19,19,0,0,1,2,8.26H46A18.67,18.67,0,0,0,44.82,87a12.54,12.54,0,0,0-3.24-4.81,17.57,17.57,0,0,0-6.12-3.54,28.92,28.92,0,0,0-9.74-1.39,37.31,37.31,0,0,0-9.23,1,18.17,18.17,0,0,0-6,2.61,9.53,9.53,0,0,0-3.25,3.88,12,12,0,0,0-1,4.85,13,13,0,0,0,.63,4.26A8.07,8.07,0,0,0,9.07,97a13.37,13.37,0,0,0,4.34,2.49,44.89,44.89,0,0,0,7.08,1.89l12.4,2.45a61.36,61.36,0,0,1,8,2.15,20.36,20.36,0,0,1,5.82,3.08,12.41,12.41,0,0,1,3.59,4.43,14.38,14.38,0,0,1,1.22,6.19,17.51,17.51,0,0,1-1.14,6.12,13.38,13.38,0,0,1-3.92,5.48,21.51,21.51,0,0,1-7.42,3.92,38.39,38.39,0,0,1-11.73,1.52,45.39,45.39,0,0,1-12.6-1.52,22.94,22.94,0,0,1-8.48-4.3,16.11,16.11,0,0,1-4.76-6.7A24.53,24.53,0,0,1,0,115.51Z"/><polygon class="cls-1" points="58.95 75.2 62.83 75.2 62.83 109.77 106.17 75.2 112.33 75.2 81.13 100.08 114.52 135.41 109.12 135.41 78.09 102.52 62.83 114.66 62.83 135.41 58.95 135.41 58.95 75.2"/><rect class="cls-1" x="118.32" y="75.2" width="3.88" height="60.21"/><polygon class="cls-1" points="132.32 75.2 137.21 75.2 182.16 130.01 182.32 130.01 182.32 75.2 186.21 75.2 186.21 135.41 181.31 135.41 136.36 80.59 136.19 80.59 136.19 135.41 132.32 135.41 132.32 75.2"/><path class="cls-1" d="M574.6,94c-13.83-3-27.6-6.35-41.5-9-15.77-3.07-31.61-5.79-47.48-8.32a366.92,366.92,0,0,0-67.13-4.23c-42.85,1.07-83.5,10.41-120.34,33-18.31,11.24-36.09,23.36-54,35.22-21.4,14.14-43.61,26.58-68.47,33.7-26.49,7.59-52.43,6.51-78.14-3.66a330.13,330.13,0,0,0-35.33-12c-12.87-3.48-26.18-3.76-38,3.34-6.31,3.78-11.44,9.54-17.08,14.42-1,.91-2,1.91-3.6,3.43,11.16-18.58,30.46-28,50.89-26.22C70,155,84.5,160.47,99.09,165.57,113.9,170.75,129,174,144.72,173c14.29-.94,28-4.55,41.37-9.71,22.93-8.88,43.37-22.15,63.55-35.88s40-27.61,61.91-38.3c20.05-9.78,41.17-15.94,63.14-19.59,24.05-4,48.23-4.41,72.42-2.57a448.43,448.43,0,0,1,75.78,12.75c16.34,4.14,32.58,8.7,48.86,13.08,1,.27,2,.61,3,.92Z"/></g></g></svg>