<?xml version="1.0" encoding="utf-8"?>
<!-- Generator: Adobe Illustrator 26.5.3, SVG Export Plug-In . SVG Version: 6.00 Build 0)  -->
<svg version="1.1" id="Layer_1" xmlns="http://www.w3.org/2000/svg" xmlns:xlink="http://www.w3.org/1999/xlink" x="0px" y="0px"
	 viewBox="0 0 260 80" style="enable-background:new 0 0 260 80;" xml:space="preserve">
<style type="text/css">
	.st0{fill:#F15BB5;stroke:#F15BB5;stroke-miterlimit:10;}
	.st1{fill:#9B5DE5;stroke:#9B5DE5;stroke-width:0.25;stroke-miterlimit:10;}
</style>
<g>
	<polygon class="st0" points="33.9,19 22.9,19 22.9,28.8 13.1,28.8 13.1,4.1 22.9,4.1 22.9,12.7 33.9,12.7 33.9,4.1 43.7,4.1 
		43.7,28.8 33.9,28.8 	"/>
	<path class="st0" d="M67.5,4.1h-12L45,28.8h10.4l1-2.8h10.2l1,2.8H78L67.5,4.1z M58.6,20l2.9-8.4h0.1l2.9,8.4H58.6z"/>
	<rect x="79.4" y="4.1" class="st0" width="9.8" height="24.8"/>
	<path class="st0" d="M123.8,27.5c-0.2-0.5-0.4-1-0.4-1.6l-0.4-5.4c-0.1-1.1-0.4-2-0.9-2.6s-1.2-1-1.9-1.2v-0.1
		c0.7-0.2,1.3-0.5,1.8-0.9s0.9-0.8,1.2-1.4c0.3-0.5,0.5-1.1,0.6-1.6c0.1-0.6,0.2-1.2,0.2-1.8c0-0.7-0.1-1.3-0.3-2
		c-0.2-0.6-0.4-1.2-0.7-1.7c-0.3-0.5-0.7-1-1.1-1.4s-0.8-0.7-1.3-1c-0.7-0.3-1.5-0.6-2.4-0.7s-2.1-0.2-3.5-0.2H94.1v24.8h9.8v-7.6
		h6.9c0.9,0,1.5,0.3,1.9,0.8s0.6,1.2,0.6,2.2c0,0.7,0.1,1.3,0.1,1.8s0.1,0.9,0.1,1.3s0.1,0.7,0.1,0.9c0,0.2,0.1,0.5,0.2,0.6h10.7
		C124.3,28.5,124,28,123.8,27.5z M112.9,14.4c-0.4,0.4-1.1,0.6-2.1,0.6h-6.9v-4.7h6.8c0.8,0,1.5,0.2,2,0.5s0.8,0.9,0.8,1.9
		C113.6,13.4,113.4,14,112.9,14.4z"/>
	<polygon class="st0" points="127.5,4.1 137.3,4.1 137.3,22.2 152.5,22.2 152.5,28.8 127.5,28.8 	"/>
	<polygon class="st0" points="155.1,4.1 181.5,4.1 181.5,10.1 164.9,10.1 164.9,13.4 180.3,13.4 180.3,19.5 164.9,19.5 164.9,22.8 
		181.5,22.8 181.5,28.8 155.1,28.8 	"/>
	<path class="st0" d="M190.3,17.5c-1.2-0.2-2.2-0.5-3.1-0.9c-0.9-0.4-1.6-0.9-2.1-1.5s-0.9-1.3-1.2-2c-0.3-0.8-0.4-1.6-0.4-2.5
		c0-1.6,0.4-2.9,1.1-4c0.7-1.1,1.8-1.9,3-2.5c1.3-0.6,2.8-1.1,4.5-1.3s3.6-0.4,5.6-0.4c2.8,0,5.1,0.2,7.1,0.5c2,0.4,3.6,0.9,4.9,1.6
		c1.3,0.7,2.2,1.5,2.9,2.5c0.6,1,1,2.2,1.1,3.5h-11.4c0-0.5-0.1-0.9-0.4-1.2c-0.3-0.3-0.6-0.6-1.1-0.7c-0.4-0.2-0.9-0.3-1.5-0.4
		C198.9,8,198.4,8,197.8,8c-1.5,0-2.5,0.2-3.1,0.5s-0.9,0.8-0.9,1.3c0,0.3,0.1,0.6,0.3,0.9c0.2,0.2,0.5,0.4,1,0.4l11.7,1.7
		c2.5,0.4,4.5,1.1,5.9,2.3s2.1,2.8,2.1,4.9c0,3-1.3,5.3-3.8,6.7c-2.6,1.4-6.6,2.2-12.1,2.2c-1.9,0-3.7-0.1-5.6-0.3
		c-1.9-0.2-3.6-0.6-5.1-1.2s-2.7-1.4-3.7-2.5c-0.9-1.1-1.4-2.5-1.4-4.4H195c0,0.8,0.4,1.4,1,1.8c0.7,0.3,1.8,0.5,3.3,0.5
		s2.6-0.2,3.1-0.6s0.8-0.9,0.8-1.5c0-0.4-0.1-0.7-0.4-1c-0.3-0.3-0.7-0.5-1.4-0.6L190.3,17.5z"/>
	<path class="st0" d="M223.7,17.5c-1.2-0.2-2.2-0.5-3.1-0.9c-0.9-0.4-1.6-0.9-2.1-1.5s-0.9-1.3-1.2-2c-0.3-0.8-0.4-1.6-0.4-2.5
		c0-1.6,0.4-2.9,1.1-4c0.7-1.1,1.8-1.9,3-2.5c1.3-0.6,2.8-1.1,4.5-1.3s3.6-0.4,5.6-0.4c2.8,0,5.1,0.2,7.1,0.5c2,0.4,3.6,0.9,4.9,1.6
		c1.3,0.7,2.2,1.5,2.9,2.5c0.6,1,1,2.2,1.1,3.5h-11.4c0-0.5-0.1-0.9-0.4-1.2c-0.3-0.3-0.6-0.6-1.1-0.7c-0.4-0.2-0.9-0.3-1.5-0.4
		C232.3,8,231.8,8,231.2,8c-1.5,0-2.5,0.2-3.1,0.5s-0.9,0.8-0.9,1.3c0,0.3,0.1,0.6,0.3,0.9c0.2,0.2,0.5,0.4,1,0.4l11.7,1.7
		c2.5,0.4,4.5,1.1,5.9,2.3s2.1,2.8,2.1,4.9c0,3-1.3,5.3-3.8,6.7c-2.6,1.4-6.6,2.2-12.1,2.2c-1.9,0-3.7-0.1-5.6-0.3
		c-1.9-0.2-3.6-0.6-5.1-1.2s-2.7-1.4-3.7-2.5c-0.9-1.1-1.4-2.5-1.4-4.4h11.8c0,0.8,0.4,1.4,1,1.8c0.7,0.3,1.8,0.5,3.3,0.5
		s2.6-0.2,3.1-0.6s0.8-0.9,0.8-1.5c0-0.4-0.1-0.7-0.4-1c-0.3-0.3-0.7-0.5-1.4-0.6L223.7,17.5z"/>
</g>
<path class="st1" d="M248.2,42.3c-5.7-1.3-11.4-2.6-17.1-3.7c-6.5-1.3-13-2.4-19.5-3.4c-9.2-1.5-18.4-2-27.6-1.7
	c-17.6,0.4-34.4,4.3-49.5,13.6c-7.5,4.6-14.9,9.6-22.2,14.5c-8.8,5.8-17.9,10.9-28.2,13.9c-10.9,3.1-21.6,2.7-32.2-1.5
	c-4.8-1.9-9.6-3.6-14.5-4.9c-5.3-1.4-10.8-1.5-15.7,1.4c-2.6,1.6-4.7,3.9-7,5.9c-0.4,0.4-0.8,0.8-1.5,1.4c4.6-7.6,12.5-11.5,21-10.8
	c6.5,0.6,12.4,2.8,18.4,4.9c6.1,2.1,12.3,3.5,18.8,3c5.9-0.4,11.5-1.9,17-4c9.4-3.7,17.9-9.1,26.2-14.8c8.3-5.6,16.5-11.4,25.5-15.8
	c8.3-4,16.9-6.6,26-8.1c9.9-1.6,19.9-1.8,29.8-1.1c10.5,0.8,20.9,2.7,31.2,5.2c6.7,1.7,13.4,3.6,20.1,5.4c0.4,0.1,0.8,0.2,1.2,0.4
	C248.3,42.2,248.3,42.2,248.2,42.3z"/>
<g>
	<path class="st1" d="M13.3,51.1c0,2.3,0.8,4.1,2.3,5.4c1.5,1.3,3.9,1.9,7.2,1.9c1.5,0,2.8-0.1,3.9-0.5c1.1-0.3,1.9-0.7,2.6-1.2
		s1.1-1.1,1.4-1.8s0.4-1.4,0.4-2.1c0-0.7-0.1-1.3-0.3-1.8c-0.2-0.5-0.5-1-1-1.4s-1.2-0.7-2-1s-1.9-0.6-3.2-0.9l-4.6-1
		c-1.4-0.3-2.5-0.6-3.5-1c-0.9-0.4-1.7-0.8-2.3-1.3s-1-1.1-1.3-1.8s-0.4-1.5-0.4-2.4s0.2-1.8,0.6-2.6c0.4-0.8,1-1.5,1.8-2
		c0.8-0.6,1.8-1,2.9-1.3c1.2-0.3,2.5-0.5,4-0.5c1.6,0,3,0.1,4.2,0.4s2.3,0.7,3.2,1.4c0.9,0.6,1.6,1.4,2.1,2.4
		c0.5,0.9,0.8,2.1,0.8,3.4h-1.6c0-0.7-0.2-1.4-0.5-2.2c-0.3-0.7-0.7-1.4-1.3-2c-0.6-0.6-1.5-1.1-2.5-1.5c-1.1-0.4-2.4-0.6-4-0.6
		c-1.5,0-2.8,0.1-3.8,0.4c-1,0.3-1.9,0.6-2.5,1.1s-1.1,1-1.3,1.6c-0.3,0.6-0.4,1.3-0.4,2s0.1,1.3,0.3,1.8s0.5,0.9,0.9,1.3
		c0.4,0.4,1,0.7,1.8,1s1.7,0.5,2.9,0.8l5.1,1c1.3,0.3,2.3,0.5,3.3,0.9c0.9,0.3,1.7,0.8,2.4,1.3c0.6,0.5,1.1,1.1,1.5,1.8
		c0.3,0.7,0.5,1.6,0.5,2.6c0,0.8-0.2,1.7-0.5,2.5s-0.9,1.6-1.6,2.3c-0.8,0.7-1.8,1.2-3.1,1.6c-1.3,0.4-2.9,0.6-4.8,0.6
		c-2,0-3.8-0.2-5.2-0.6c-1.4-0.4-2.6-1-3.5-1.8s-1.6-1.7-2-2.8s-0.6-2.3-0.6-3.6h1.7V51.1z"/>
	<polygon class="st1" points="36,34.6 37.6,34.6 37.6,48.8 55.4,34.6 58,34.6 45.1,44.8 58.9,59.3 56.6,59.3 43.9,45.8 37.6,50.8 
		37.6,59.3 36,59.3 	"/>
	<rect x="60.4" y="34.6" class="st1" width="1.6" height="24.8"/>
	<polygon class="st1" points="66.2,34.6 68.2,34.6 86.7,57.1 86.8,57.1 86.8,34.6 88.4,34.6 88.4,59.3 86.3,59.3 67.8,36.8 
		67.8,36.8 67.8,59.3 66.2,59.3 	"/>
</g>
</svg>
