<?xml version="1.0" encoding="UTF-8"?>
<svg id="Layer_1" data-name="Layer 1" xmlns="http://www.w3.org/2000/svg" viewBox="0 0 260 80">
  <defs>
    <style>
      .cls-1 {
        fill: #cb395b;
        stroke: #be3656;
        stroke-miterlimit: 10;
      }

      .cls-2 {
        fill: #d6bba9;
      }
    </style>
  </defs>
  <g>
    <polygon class="cls-2" points="39.66 20.64 29.28 20.64 29.28 29.98 20.04 29.98 20.04 6.6 29.28 6.6 29.28 14.75 39.66 14.75 39.66 6.6 48.89 6.6 48.89 29.98 39.66 29.98 39.66 20.64"/>
    <path class="cls-2" d="M71.36,6.6h-11.33l-9.95,23.38h9.82l.98-2.68h9.63l.98,2.68h9.82l-9.95-23.38Zm-8.45,15l2.75-7.93h.07l2.75,7.93h-5.57Z"/>
    <rect class="cls-2" x="82.59" y="6.6" width="9.24" height="23.38"/>
    <path class="cls-2" d="M124.42,28.72c-.21-.47-.33-.97-.38-1.49l-.39-5.11c-.09-1.05-.38-1.86-.87-2.44-.49-.58-1.09-.97-1.78-1.16v-.07c.68-.2,1.24-.48,1.7-.85,.46-.37,.83-.8,1.11-1.28,.28-.48,.49-.99,.61-1.54,.12-.55,.18-1.1,.18-1.67,0-.65-.08-1.27-.25-1.85-.16-.58-.39-1.11-.69-1.6-.29-.49-.63-.93-1.02-1.31-.38-.38-.79-.68-1.23-.9-.63-.31-1.38-.52-2.24-.66-.86-.13-1.96-.2-3.29-.2h-19.45V29.98h9.23v-7.2h6.55c.85,0,1.45,.25,1.8,.74,.35,.49,.54,1.17,.59,2.05,.04,.68,.08,1.26,.1,1.74,.02,.48,.05,.89,.08,1.23,.03,.34,.07,.62,.11,.85,.04,.23,.11,.43,.2,.61h10.09c-.31-.37-.56-.79-.77-1.26Zm-10.23-12.38c-.39,.36-1.05,.54-1.97,.54h-6.55v-4.39h6.42c.76,0,1.4,.14,1.92,.43s.77,.87,.77,1.77c0,.74-.2,1.29-.59,1.65Z"/>
    <polygon class="cls-2" points="127.94 6.6 137.17 6.6 137.17 23.69 151.48 23.69 151.48 29.98 127.94 29.98 127.94 6.6"/>
    <polygon class="cls-2" points="154.01 6.6 178.86 6.6 178.86 12.29 163.24 12.29 163.24 15.44 177.75 15.44 177.75 21.13 163.24 21.13 163.24 24.28 178.86 24.28 178.86 29.98 154.01 29.98 154.01 6.6"/>
    <path class="cls-2" d="M187.14,19.28c-1.14-.17-2.11-.46-2.91-.87-.81-.4-1.47-.89-1.98-1.46s-.89-1.21-1.13-1.93c-.24-.72-.36-1.49-.36-2.33,0-1.51,.35-2.76,1.05-3.75,.7-.99,1.65-1.79,2.86-2.37,1.21-.59,2.64-1,4.29-1.23s3.42-.34,5.32-.34c2.6,0,4.82,.17,6.68,.51,1.85,.34,3.39,.83,4.6,1.47,1.21,.64,2.12,1.44,2.72,2.39,.6,.95,.94,2.05,1.03,3.29h-10.74c0-.48-.13-.87-.38-1.16-.25-.3-.59-.53-1.03-.7-.41-.17-.87-.3-1.38-.38-.5-.08-1-.11-1.51-.11-1.38,0-2.34,.15-2.88,.46-.55,.31-.82,.71-.82,1.21,0,.33,.09,.6,.26,.8,.17,.21,.49,.34,.95,.41l11.04,1.64c2.36,.35,4.2,1.08,5.53,2.18,1.33,1.1,2,2.65,2,4.63,0,2.86-1.21,4.97-3.62,6.34-2.41,1.36-6.22,2.05-11.41,2.05-1.77,0-3.54-.09-5.3-.26-1.77-.18-3.37-.54-4.8-1.1-1.43-.56-2.59-1.35-3.47-2.37-.88-1.03-1.33-2.4-1.33-4.13h11.13c.02,.76,.35,1.32,.98,1.67,.68,.33,1.72,.49,3.14,.49s2.41-.17,2.92-.52c.5-.35,.75-.81,.75-1.38,0-.35-.12-.67-.36-.97-.24-.29-.68-.5-1.31-.61l-10.54-1.57Z"/>
    <path class="cls-2" d="M218.65,19.28c-1.14-.17-2.11-.46-2.91-.87-.81-.4-1.47-.89-1.98-1.46s-.89-1.21-1.13-1.93c-.24-.72-.36-1.49-.36-2.33,0-1.51,.35-2.76,1.05-3.75,.7-.99,1.65-1.79,2.86-2.37,1.21-.59,2.64-1,4.29-1.23s3.42-.34,5.32-.34c2.6,0,4.82,.17,6.68,.51,1.85,.34,3.39,.83,4.6,1.47,1.21,.64,2.12,1.44,2.72,2.39,.6,.95,.94,2.05,1.03,3.29h-10.74c0-.48-.13-.87-.38-1.16-.25-.3-.59-.53-1.03-.7-.41-.17-.87-.3-1.38-.38-.5-.08-1-.11-1.51-.11-1.38,0-2.34,.15-2.88,.46-.55,.31-.82,.71-.82,1.21,0,.33,.09,.6,.26,.8,.17,.21,.49,.34,.95,.41l11.04,1.64c2.36,.35,4.2,1.08,5.53,2.18,1.33,1.1,2,2.65,2,4.63,0,2.86-1.21,4.97-3.62,6.34-2.41,1.36-6.22,2.05-11.41,2.05-1.77,0-3.54-.09-5.3-.26-1.77-.18-3.37-.54-4.8-1.1-1.43-.56-2.59-1.35-3.47-2.37-.88-1.03-1.33-2.4-1.33-4.13h11.13c.02,.76,.35,1.32,.98,1.67,.68,.33,1.72,.49,3.14,.49s2.41-.17,2.92-.52c.5-.35,.75-.81,.75-1.38,0-.35-.12-.67-.36-.97-.24-.29-.68-.5-1.31-.61l-10.54-1.57Z"/>
  </g>
  <g>
    <path class="cls-1" d="M20.21,51.02c.02,2.18,.74,3.89,2.14,5.11,1.41,1.22,3.68,1.83,6.83,1.83,1.44,0,2.66-.14,3.65-.43,.99-.28,1.8-.67,2.42-1.15,.62-.48,1.07-1.03,1.34-1.65s.41-1.28,.41-1.98c0-.66-.09-1.23-.28-1.72-.19-.49-.51-.92-.97-1.29-.46-.37-1.09-.7-1.88-.98-.8-.28-1.81-.56-3.03-.82l-4.36-.92c-1.29-.26-2.38-.56-3.27-.9-.9-.34-1.63-.75-2.19-1.23-.57-.48-.98-1.05-1.23-1.7-.25-.65-.38-1.42-.38-2.29s.19-1.68,.57-2.42c.38-.74,.94-1.38,1.69-1.91,.74-.54,1.66-.96,2.77-1.26,1.1-.31,2.37-.46,3.81-.46s2.79,.14,3.98,.41,2.21,.7,3.06,1.29c.85,.59,1.51,1.33,1.98,2.23,.47,.9,.73,1.96,.77,3.21h-1.51c-.04-.68-.19-1.36-.44-2.05s-.67-1.31-1.26-1.87-1.38-1.02-2.37-1.38c-.99-.36-2.25-.54-3.78-.54-1.42,0-2.61,.13-3.59,.38-.97,.25-1.75,.59-2.34,1.02-.59,.43-1.01,.93-1.26,1.51-.25,.58-.38,1.21-.38,1.88,0,.63,.08,1.18,.25,1.65s.45,.89,.85,1.26c.4,.37,.97,.69,1.69,.97,.72,.27,1.64,.52,2.75,.74l4.81,.95c1.18,.24,2.21,.52,3.11,.83,.9,.32,1.65,.72,2.26,1.2,.61,.48,1.08,1.05,1.39,1.72,.32,.66,.47,1.47,.47,2.41,0,.79-.15,1.58-.44,2.37s-.8,1.51-1.52,2.13c-.72,.62-1.68,1.13-2.88,1.52s-2.72,.59-4.55,.59-3.55-.2-4.9-.59c-1.34-.39-2.44-.95-3.29-1.67-.85-.72-1.47-1.59-1.85-2.6s-.57-2.15-.57-3.39h1.51Z"/>
    <polygon class="cls-1" points="41.59 35.36 43.1 35.36 43.1 48.79 59.93 35.36 62.32 35.36 50.2 45.02 63.17 58.74 61.07 58.74 49.02 45.97 43.1 50.69 43.1 58.74 41.59 58.74 41.59 35.36"/>
    <rect class="cls-1" x="64.64" y="35.36" width="1.51" height="23.38"/>
    <polygon class="cls-1" points="70.08 35.36 71.98 35.36 89.43 56.65 89.5 56.65 89.5 35.36 91 35.36 91 58.74 89.1 58.74 71.65 37.46 71.59 37.46 71.59 58.74 70.08 58.74 70.08 35.36"/>
  </g>
  <path class="cls-1" d="M241.82,42.65c-5.37-1.18-10.72-2.46-16.11-3.51-6.12-1.19-12.28-2.25-18.44-3.23-8.63-1.38-17.33-1.86-26.07-1.64-16.64,.42-32.42,4.04-46.73,12.83-7.11,4.37-14.01,9.07-20.98,13.68-8.31,5.49-16.93,10.32-26.59,13.09-10.28,2.95-20.36,2.53-30.34-1.42-4.49-1.78-9.06-3.4-13.72-4.66-5-1.35-10.17-1.46-14.78,1.3-2.45,1.47-4.44,3.7-6.63,5.6-.41,.35-.78,.74-1.4,1.33,4.34-7.21,11.83-10.87,19.76-10.18,6.09,.53,11.71,2.66,17.37,4.64,5.75,2.01,11.61,3.26,17.72,2.86,5.55-.36,10.88-1.76,16.06-3.77,8.9-3.45,16.84-8.6,24.68-13.93,7.8-5.31,15.53-10.72,24.04-14.87,7.79-3.8,15.99-6.19,24.52-7.61,9.34-1.55,18.73-1.71,28.12-.99,9.95,.76,19.76,2.5,29.43,4.95,6.35,1.61,12.65,3.38,18.97,5.08,.39,.1,.77,.24,1.15,.35-.02,.04-.03,.08-.05,.13Z"/>
</svg>