<?xml version="1.0" encoding="utf-8"?>
<!-- Generator: Adobe Illustrator 27.6.1, SVG Export Plug-In . SVG Version: 6.00 Build 0)  -->
<svg version="1.1" id="Layer_1" xmlns="http://www.w3.org/2000/svg" xmlns:xlink="http://www.w3.org/1999/xlink" x="0px" y="0px"
	 viewBox="0 0 260 80" style="enable-background:new 0 0 260 80;" xml:space="preserve">
<style type="text/css">
	.st0{display:none;}
	.st1{display:inline;fill:#D6BBA9;}
	.st2{display:inline;fill:#CB395B;stroke:#BE3656;stroke-miterlimit:10;}
	.st3{display:none;fill:#CB395B;stroke:#BE3656;stroke-miterlimit:10;}
	.st4{fill:#E46088;stroke:#FF9E9D;stroke-width:0.25;stroke-miterlimit:10;}
	.st5{opacity:0.25;}
	.st6{fill:url(#SVGID_1_);}
	.st7{fill:none;stroke:#666666;stroke-width:3.875861e-02;stroke-miterlimit:10;}
	.st8{fill:url(#SVGID_00000153674585504097713510000016178942126121074848_);}
	.st9{fill:none;stroke:#666666;stroke-width:5.005280e-02;stroke-miterlimit:10;}
	.st10{fill:url(#SVGID_00000128443317085544720540000012480994246598965401_);}
	.st11{fill:none;stroke:#666666;stroke-width:6.463810e-02;stroke-miterlimit:10;}
	.st12{fill:url(#SVGID_00000162342966265777900520000009500460335060257432_);}
	.st13{fill:none;stroke:#666666;stroke-width:8.347353e-02;stroke-miterlimit:10;}
	.st14{fill:url(#SVGID_00000101825256377855553180000011160575151942319534_);}
	.st15{fill:none;stroke:#666666;stroke-width:0.1078;stroke-miterlimit:10;}
	.st16{fill:url(#SVGID_00000142857856400428407190000005257751516764659348_);}
	.st17{fill:none;stroke:#666666;stroke-width:0.1392;stroke-miterlimit:10;}
	.st18{fill:url(#SVGID_00000050626469202298751280000006458616102872145084_);}
	.st19{fill:none;stroke:#666666;stroke-width:0.1798;stroke-miterlimit:10;}
	.st20{fill:url(#SVGID_00000114058475832940420130000008429351884974836636_);}
	.st21{fill:none;stroke:#666666;stroke-width:0.2322;stroke-miterlimit:10;}
	.st22{fill:url(#SVGID_00000023262407542858917010000006402088319008370605_);}
	.st23{fill:none;stroke:#666666;stroke-width:0.2998;stroke-miterlimit:10;}
	.st24{fill:url(#SVGID_00000152248944856237416820000001499393838112172717_);}
	.st25{fill:none;stroke:#666666;stroke-width:0.3872;stroke-miterlimit:10;}
	.st26{fill:url(#SVGID_00000030474549635682958950000002830064342199272332_);}
	.st27{fill:none;stroke:#666666;stroke-width:0.5;stroke-miterlimit:10;}
	
		.st28{fill:url(#SVGID_00000155105992658899865570000008986636435502892692_);stroke:#666666;stroke-width:0.5;stroke-miterlimit:10;}
	
		.st29{fill:url(#SVGID_00000061468958914824548920000005893588319418980271_);stroke:#7FC7AF;stroke-width:0.25;stroke-miterlimit:10;}
	.st30{fill:#49C0B8;}
</style>
<g class="st0">
	<polygon class="st1" points="39.7,20.6 29.3,20.6 29.3,30 20,30 20,6.6 29.3,6.6 29.3,14.8 39.7,14.8 39.7,6.6 48.9,6.6 48.9,30 
		39.7,30 	"/>
	<path class="st1" d="M71.4,6.6H60L50.1,30h9.8l1-2.7h9.6l1,2.7h9.8C81.3,30,71.4,6.6,71.4,6.6z M62.9,21.6l2.8-7.9h0.1l2.8,7.9
		C68.5,21.6,62.9,21.6,62.9,21.6z"/>
	<rect x="82.6" y="6.6" class="st1" width="9.2" height="23.4"/>
	<path class="st1" d="M124.4,28.7c-0.2-0.5-0.3-1-0.4-1.5l-0.4-5.1c-0.1-1-0.4-1.9-0.9-2.4c-0.5-0.6-1.1-1-1.8-1.2v-0.1
		c0.7-0.2,1.2-0.5,1.7-0.9s0.8-0.8,1.1-1.3c0.3-0.5,0.5-1,0.6-1.5s0.2-1.1,0.2-1.7c0-0.6-0.1-1.3-0.2-1.9c-0.2-0.6-0.4-1.1-0.7-1.6
		c-0.3-0.5-0.6-0.9-1-1.3c-0.4-0.4-0.8-0.7-1.2-0.9c-0.6-0.3-1.4-0.5-2.2-0.7c-0.9-0.1-2-0.2-3.3-0.2H96.4V30h9.2v-7.2h6.6
		c0.8,0,1.4,0.2,1.8,0.7c0.3,0.5,0.5,1.2,0.6,2c0,0.7,0.1,1.3,0.1,1.7s0.1,0.9,0.1,1.2s0.1,0.6,0.1,0.9s0.1,0.4,0.2,0.6h10.1
		C124.9,29.6,124.6,29.2,124.4,28.7L124.4,28.7z M114.2,16.3c-0.4,0.4-1.1,0.5-2,0.5h-6.6v-4.4h6.4c0.8,0,1.4,0.1,1.9,0.4
		s0.8,0.9,0.8,1.8C114.8,15.4,114.6,16,114.2,16.3z"/>
	<polygon class="st1" points="127.9,6.6 137.2,6.6 137.2,23.7 151.5,23.7 151.5,30 127.9,30 	"/>
	<polygon class="st1" points="154,6.6 178.9,6.6 178.9,12.3 163.2,12.3 163.2,15.4 177.8,15.4 177.8,21.1 163.2,21.1 163.2,24.3 
		178.9,24.3 178.9,30 154,30 	"/>
	<path class="st1" d="M187.1,19.3c-1.1-0.2-2.1-0.5-2.9-0.9c-0.8-0.4-1.5-0.9-2-1.5s-0.9-1.2-1.1-1.9s-0.4-1.5-0.4-2.3
		c0-1.5,0.4-2.8,1.1-3.8s1.6-1.8,2.9-2.4c1.2-0.6,2.6-1,4.3-1.2s3.4-0.3,5.3-0.3c2.6,0,4.8,0.2,6.7,0.5c1.9,0.3,3.4,0.8,4.6,1.5
		s2.1,1.4,2.7,2.4c0.6,0.9,0.9,2.1,1,3.3h-10.7c0-0.5-0.1-0.9-0.4-1.2c-0.2-0.3-0.6-0.5-1-0.7c-0.4-0.2-0.9-0.3-1.4-0.4
		c-0.5-0.1-1-0.1-1.5-0.1c-1.4,0-2.3,0.1-2.9,0.5c-0.6,0.3-0.8,0.7-0.8,1.2c0,0.3,0.1,0.6,0.3,0.8c0.2,0.2,0.5,0.3,0.9,0.4l11,1.6
		c2.4,0.4,4.2,1.1,5.5,2.2s2,2.6,2,4.6c0,2.9-1.2,5-3.6,6.3c-2.4,1.4-6.2,2-11.4,2c-1.8,0-3.5-0.1-5.3-0.3c-1.8-0.2-3.4-0.5-4.8-1.1
		c-1.4-0.6-2.6-1.4-3.5-2.4c-0.9-1-1.3-2.4-1.3-4.1h11.1c0,0.8,0.4,1.3,1,1.7c0.7,0.3,1.7,0.5,3.1,0.5s2.4-0.2,2.9-0.5
		c0.5-0.4,0.8-0.8,0.8-1.4c0-0.4-0.1-0.7-0.4-1c-0.2-0.3-0.7-0.5-1.3-0.6L187.1,19.3L187.1,19.3z"/>
	<path class="st1" d="M218.6,19.3c-1.1-0.2-2.1-0.5-2.9-0.9c-0.8-0.4-1.5-0.9-2-1.5s-0.9-1.2-1.1-1.9s-0.4-1.5-0.4-2.3
		c0-1.5,0.4-2.8,1.1-3.8s1.6-1.8,2.9-2.4c1.2-0.6,2.6-1,4.3-1.2s3.4-0.3,5.3-0.3c2.6,0,4.8,0.2,6.7,0.5c1.9,0.3,3.4,0.8,4.6,1.5
		s2.1,1.4,2.7,2.4c0.6,0.9,0.9,2.1,1,3.3h-10.7c0-0.5-0.1-0.9-0.4-1.2c-0.2-0.3-0.6-0.5-1-0.7c-0.4-0.2-0.9-0.3-1.4-0.4
		c-0.5-0.1-1-0.1-1.5-0.1c-1.4,0-2.3,0.1-2.9,0.5c-0.6,0.3-0.8,0.7-0.8,1.2c0,0.3,0.1,0.6,0.3,0.8c0.2,0.2,0.5,0.3,0.9,0.4l11,1.6
		c2.4,0.4,4.2,1.1,5.5,2.2s2,2.6,2,4.6c0,2.9-1.2,5-3.6,6.3c-2.4,1.4-6.2,2-11.4,2c-1.8,0-3.5-0.1-5.3-0.3c-1.8-0.2-3.4-0.5-4.8-1.1
		c-1.4-0.6-2.6-1.4-3.5-2.4c-0.9-1-1.3-2.4-1.3-4.1h11.1c0,0.8,0.4,1.3,1,1.7c0.7,0.3,1.7,0.5,3.1,0.5s2.4-0.2,2.9-0.5
		c0.5-0.4,0.8-0.8,0.8-1.4c0-0.4-0.1-0.7-0.4-1c-0.2-0.3-0.7-0.5-1.3-0.6L218.6,19.3L218.6,19.3z"/>
</g>
<g class="st0">
	<path class="st2" d="M20.2,51c0,2.2,0.7,3.9,2.1,5.1c1.4,1.2,3.7,1.8,6.8,1.8c1.4,0,2.7-0.1,3.6-0.4c1-0.3,1.8-0.7,2.4-1.2
		c0.6-0.5,1.1-1,1.3-1.7s0.4-1.3,0.4-2c0-0.7-0.1-1.2-0.3-1.7s-0.5-0.9-1-1.3c-0.5-0.4-1.1-0.7-1.9-1c-0.8-0.3-1.8-0.6-3-0.8
		L26.5,47c-1.3-0.3-2.4-0.6-3.3-0.9c-0.9-0.3-1.6-0.8-2.2-1.2c-0.6-0.5-1-1-1.2-1.7s-0.4-1.4-0.4-2.3s0.2-1.7,0.6-2.4
		s0.9-1.4,1.7-1.9c0.7-0.5,1.7-1,2.8-1.3c1.1-0.3,2.4-0.5,3.8-0.5s2.8,0.1,4,0.4s2.2,0.7,3.1,1.3c0.8,0.6,1.5,1.3,2,2.2
		c0.5,0.9,0.7,2,0.8,3.2h-1.5c0-0.7-0.2-1.4-0.4-2s-0.7-1.3-1.3-1.9s-1.4-1-2.4-1.4c-1-0.4-2.2-0.5-3.8-0.5c-1.4,0-2.6,0.1-3.6,0.4
		c-1,0.2-1.8,0.6-2.3,1s-1,0.9-1.3,1.5c-0.2,0.6-0.4,1.2-0.4,1.9c0,0.6,0.1,1.2,0.2,1.7s0.5,0.9,0.9,1.3s1,0.7,1.7,1
		c0.7,0.3,1.6,0.5,2.8,0.7l4.8,1c1.2,0.2,2.2,0.5,3.1,0.8c0.9,0.3,1.7,0.7,2.3,1.2c0.6,0.5,1.1,1,1.4,1.7c0.3,0.7,0.5,1.5,0.5,2.4
		c0,0.8-0.2,1.6-0.4,2.4s-0.8,1.5-1.5,2.1c-0.7,0.6-1.7,1.1-2.9,1.5s-2.7,0.6-4.5,0.6s-3.5-0.2-4.9-0.6c-1.3-0.4-2.4-1-3.3-1.7
		c-0.9-0.7-1.5-1.6-1.9-2.6s-0.6-2.2-0.6-3.4L20.2,51L20.2,51z"/>
	<polygon class="st2" points="41.6,35.4 43.1,35.4 43.1,48.8 59.9,35.4 62.3,35.4 50.2,45 63.2,58.7 61.1,58.7 49,46 43.1,50.7 
		43.1,58.7 41.6,58.7 	"/>
	<rect x="64.6" y="35.4" class="st2" width="1.5" height="23.4"/>
	<polygon class="st2" points="70.1,35.4 72,35.4 89.4,56.7 89.5,56.7 89.5,35.4 91,35.4 91,58.7 89.1,58.7 71.7,37.5 71.6,37.5 
		71.6,58.7 70.1,58.7 	"/>
</g>
<path class="st3" d="M241.8,42.7c-5.4-1.2-10.7-2.5-16.1-3.5c-6.1-1.2-12.3-2.2-18.4-3.2c-8.6-1.4-17.3-1.9-26.1-1.6
	c-16.6,0.4-32.4,4-46.7,12.8c-7.1,4.4-14,9.1-21,13.7c-8.3,5.5-16.9,10.3-26.6,13.1c-10.3,2.9-20.4,2.5-30.3-1.4
	c-4.5-1.8-9.1-3.4-13.7-4.7c-5-1.3-10.2-1.5-14.8,1.3c-2.5,1.5-4.4,3.7-6.6,5.6C21,75,20.7,75.4,20,76c4.3-7.2,11.8-10.9,19.8-10.2
	c6.1,0.5,11.7,2.7,17.4,4.6c5.8,2,11.6,3.3,17.7,2.9c5.6-0.4,10.9-1.8,16.1-3.8c8.9-3.4,16.8-8.6,24.7-13.9
	c7.8-5.3,15.5-10.7,24-14.9c7.8-3.8,16-6.2,24.5-7.6c9.3-1.5,18.7-1.7,28.1-1c9.9,0.8,19.8,2.5,29.4,5c6.4,1.6,12.6,3.4,19,5.1
	C241.1,42.3,241.5,42.4,241.8,42.7C241.8,42.6,241.8,42.6,241.8,42.7L241.8,42.7z"/>
<g>
	<polygon class="st4" points="39.7,21.1 29.3,21.1 29.3,30.4 20,30.4 20,6.9 29.3,6.9 29.3,15.1 39.7,15.1 39.7,6.9 49,6.9 49,30.4 
		39.7,30.4 	"/>
	<path class="st4" d="M71.6,6.9H60.2l-10,23.5h9.9l1-2.7h9.7l1,2.7h9.9L71.6,6.9z M63.1,22l2.8-8h0.1l2.8,8H63.1z"/>
	<rect x="82.9" y="6.9" class="st4" width="9.3" height="23.5"/>
	<path class="st4" d="M125,29.2c-0.2-0.5-0.3-1-0.4-1.5l-0.4-5.1c-0.1-1.1-0.4-1.9-0.9-2.5c-0.5-0.6-1.1-1-1.8-1.2v-0.1
		c0.7-0.2,1.3-0.5,1.7-0.9c0.5-0.4,0.8-0.8,1.1-1.3c0.3-0.5,0.5-1,0.6-1.5c0.1-0.5,0.2-1.1,0.2-1.7c0-0.7-0.1-1.3-0.2-1.9
		c-0.2-0.6-0.4-1.1-0.7-1.6c-0.3-0.5-0.6-0.9-1-1.3c-0.4-0.4-0.8-0.7-1.2-0.9c-0.6-0.3-1.4-0.5-2.3-0.7c-0.9-0.1-2-0.2-3.3-0.2H96.9
		v23.5h9.3v-7.3h6.6c0.9,0,1.5,0.2,1.8,0.7c0.4,0.5,0.5,1.2,0.6,2.1c0,0.7,0.1,1.3,0.1,1.7c0,0.5,0,0.9,0.1,1.2
		c0,0.3,0.1,0.6,0.1,0.9c0,0.2,0.1,0.4,0.2,0.6h10.2C125.5,30.1,125.2,29.6,125,29.2z M114.7,16.7c-0.4,0.4-1.1,0.5-2,0.5h-6.6v-4.4
		h6.5c0.8,0,1.4,0.1,1.9,0.4c0.5,0.3,0.8,0.9,0.8,1.8C115.3,15.8,115.1,16.4,114.7,16.7z"/>
	<polygon class="st4" points="128.6,6.9 137.9,6.9 137.9,24.1 152.3,24.1 152.3,30.4 128.6,30.4 	"/>
	<polygon class="st4" points="154.8,6.9 179.8,6.9 179.8,12.6 164.1,12.6 164.1,15.8 178.7,15.8 178.7,21.5 164.1,21.5 164.1,24.7 
		179.8,24.7 179.8,30.4 154.8,30.4 	"/>
	<path class="st4" d="M188.2,19.7c-1.1-0.2-2.1-0.5-2.9-0.9c-0.8-0.4-1.5-0.9-2-1.5c-0.5-0.6-0.9-1.2-1.1-1.9
		c-0.2-0.7-0.4-1.5-0.4-2.3c0-1.5,0.4-2.8,1.1-3.8c0.7-1,1.7-1.8,2.9-2.4c1.2-0.6,2.7-1,4.3-1.2c1.7-0.2,3.4-0.3,5.4-0.3
		c2.6,0,4.9,0.2,6.7,0.5c1.9,0.3,3.4,0.8,4.6,1.5c1.2,0.6,2.1,1.5,2.7,2.4c0.6,1,0.9,2.1,1,3.3h-10.8c0-0.5-0.1-0.9-0.4-1.2
		c-0.3-0.3-0.6-0.5-1-0.7c-0.4-0.2-0.9-0.3-1.4-0.4c-0.5-0.1-1-0.1-1.5-0.1c-1.4,0-2.4,0.2-2.9,0.5c-0.5,0.3-0.8,0.7-0.8,1.2
		c0,0.3,0.1,0.6,0.3,0.8c0.2,0.2,0.5,0.3,1,0.4l11.1,1.6c2.4,0.4,4.2,1.1,5.6,2.2c1.3,1.1,2,2.7,2,4.7c0,2.9-1.2,5-3.6,6.4
		c-2.4,1.4-6.3,2.1-11.5,2.1c-1.8,0-3.6-0.1-5.3-0.3c-1.8-0.2-3.4-0.5-4.8-1.1c-1.4-0.6-2.6-1.4-3.5-2.4c-0.9-1-1.3-2.4-1.3-4.2
		h11.2c0,0.8,0.4,1.3,1,1.7c0.7,0.3,1.7,0.5,3.2,0.5c1.5,0,2.4-0.2,2.9-0.5c0.5-0.4,0.8-0.8,0.8-1.4c0-0.4-0.1-0.7-0.4-1
		c-0.2-0.3-0.7-0.5-1.3-0.6L188.2,19.7z"/>
	<path class="st4" d="M219.9,19.7c-1.1-0.2-2.1-0.5-2.9-0.9c-0.8-0.4-1.5-0.9-2-1.5s-0.9-1.2-1.1-1.9c-0.2-0.7-0.4-1.5-0.4-2.3
		c0-1.5,0.4-2.8,1.1-3.8c0.7-1,1.7-1.8,2.9-2.4c1.2-0.6,2.7-1,4.3-1.2c1.7-0.2,3.4-0.3,5.4-0.3c2.6,0,4.9,0.2,6.7,0.5
		c1.9,0.3,3.4,0.8,4.6,1.5c1.2,0.6,2.1,1.5,2.7,2.4c0.6,1,0.9,2.1,1,3.3h-10.8c0-0.5-0.1-0.9-0.4-1.2c-0.3-0.3-0.6-0.5-1-0.7
		c-0.4-0.2-0.9-0.3-1.4-0.4c-0.5-0.1-1-0.1-1.5-0.1c-1.4,0-2.4,0.2-2.9,0.5c-0.5,0.3-0.8,0.7-0.8,1.2c0,0.3,0.1,0.6,0.3,0.8
		c0.2,0.2,0.5,0.3,1,0.4l11.1,1.6c2.4,0.4,4.2,1.1,5.6,2.2c1.3,1.1,2,2.7,2,4.7c0,2.9-1.2,5-3.6,6.4c-2.4,1.4-6.3,2.1-11.5,2.1
		c-1.8,0-3.6-0.1-5.3-0.3c-1.8-0.2-3.4-0.5-4.8-1.1c-1.4-0.6-2.6-1.4-3.5-2.4c-0.9-1-1.3-2.4-1.3-4.2h11.2c0,0.8,0.4,1.3,1,1.7
		c0.7,0.3,1.7,0.5,3.2,0.5c1.5,0,2.4-0.2,2.9-0.5c0.5-0.4,0.8-0.8,0.8-1.4c0-0.4-0.1-0.7-0.4-1c-0.2-0.3-0.7-0.5-1.3-0.6L219.9,19.7
		z"/>
</g>
<g>
	<g class="st5">
		<g>
			<linearGradient id="SVGID_1_" gradientUnits="userSpaceOnUse" x1="129.6037" y1="54.8157" x2="132.6682" y2="54.8157">
				<stop  offset="0" style="stop-color:#49C0B8"/>
				<stop  offset="9.464668e-02" style="stop-color:#4EBDB6"/>
				<stop  offset="0.2085" style="stop-color:#5DB4B2"/>
				<stop  offset="0.3323" style="stop-color:#75A5AA"/>
				<stop  offset="0.463" style="stop-color:#9790A0"/>
				<stop  offset="0.5979" style="stop-color:#C27592"/>
				<stop  offset="0.6901" style="stop-color:#E46088"/>
			</linearGradient>
			<path class="st6" d="M132.7,49.9c-0.1-0.5-0.1-1.1-0.2-1.5c-0.1-0.5-0.2-1-0.3-1.4c-0.1-0.6-0.2-0.8-0.4-0.7
				c-0.2,0.2-0.4,1.8-0.6,5.7c-0.1,1.9-0.2,4-0.3,6c-0.1,2.4-0.2,4.6-0.4,5.8c-0.1,1.3-0.3,1.1-0.4-0.6c-0.1-0.8-0.1-1.5-0.2-2.1
				c-0.1-0.6-0.1-0.6-0.2,0.6c0,0.6-0.1,1.6-0.1,2.5c0,0.2,0,0.3,0,0.6c0.1-3.2,0.2-4.8,0.3-4.5c0.1,0.2,0.2,1.2,0.2,2
				c0.1,0.9,0.2,1.4,0.2,1.3c0.1-0.2,0.2-0.8,0.2-1.7c0.1-1.5,0.2-3.8,0.3-6.1c0.1-2.3,0.2-4.7,0.3-6.6c0.1-1.7,0.2-2.7,0.3-3.4
				c0.1-0.7,0.3-0.8,0.4-0.4c0.1,0.3,0.3,1.1,0.4,2.2c0.1,0.7,0.2,1.5,0.3,2.2C132.7,49.7,132.7,49.8,132.7,49.9
				C132.7,49.8,132.7,49.9,132.7,49.9z"/>
			<path class="st7" d="M132.7,49.9c-0.1-0.5-0.1-1.1-0.2-1.5c-0.1-0.5-0.2-1-0.3-1.4c-0.1-0.6-0.2-0.8-0.4-0.7
				c-0.2,0.2-0.4,1.8-0.6,5.7c-0.1,1.9-0.2,4-0.3,6c-0.1,2.4-0.2,4.6-0.4,5.8c-0.1,1.3-0.3,1.1-0.4-0.6c-0.1-0.8-0.1-1.5-0.2-2.1
				c-0.1-0.6-0.1-0.6-0.2,0.6c0,0.6-0.1,1.6-0.1,2.5c0,0.2,0,0.3,0,0.6c0.1-3.2,0.2-4.8,0.3-4.5c0.1,0.2,0.2,1.2,0.2,2
				c0.1,0.9,0.2,1.4,0.2,1.3c0.1-0.2,0.2-0.8,0.2-1.7c0.1-1.5,0.2-3.8,0.3-6.1c0.1-2.3,0.2-4.7,0.3-6.6c0.1-1.7,0.2-2.7,0.3-3.4
				c0.1-0.7,0.3-0.8,0.4-0.4c0.1,0.3,0.3,1.1,0.4,2.2c0.1,0.7,0.2,1.5,0.3,2.2C132.7,49.7,132.7,49.8,132.7,49.9
				C132.7,49.8,132.7,49.9,132.7,49.9z"/>
		</g>
		<g>
			
				<linearGradient id="SVGID_00000052087564268291696260000014569029188357174186_" gradientUnits="userSpaceOnUse" x1="128.7863" y1="54.7928" x2="133.4919" y2="54.7928">
				<stop  offset="0" style="stop-color:#49C0B8"/>
				<stop  offset="9.464668e-02" style="stop-color:#4EBDB6"/>
				<stop  offset="0.2085" style="stop-color:#5DB4B2"/>
				<stop  offset="0.3323" style="stop-color:#75A5AA"/>
				<stop  offset="0.463" style="stop-color:#9790A0"/>
				<stop  offset="0.5979" style="stop-color:#C27592"/>
				<stop  offset="0.6901" style="stop-color:#E46088"/>
			</linearGradient>
			<path style="fill:url(#SVGID_00000052087564268291696260000014569029188357174186_);" d="M133.5,49.4c-0.1-0.6-0.2-1.2-0.3-1.7
				c-0.1-0.6-0.3-1.1-0.4-1.5c-0.2-0.7-0.4-0.9-0.6-0.8c-0.4,0.2-0.7,1.9-1,6.1c-0.2,2.1-0.3,4.3-0.4,6.5c-0.2,2.6-0.4,4.9-0.6,6.3
				c-0.2,1.4-0.4,1.2-0.6-0.7c-0.1-0.9-0.2-1.6-0.3-2.2c-0.1-0.6-0.2-0.7-0.3,0.6c-0.1,0.7-0.1,1.8-0.1,2.7c0,0.2,0,0.4,0,0.6
				c0.1-3.5,0.3-5.2,0.4-4.9c0.1,0.3,0.2,1.3,0.4,2.2c0.1,1,0.2,1.6,0.4,1.4c0.1-0.2,0.2-0.8,0.3-1.8c0.2-1.7,0.4-4.1,0.5-6.7
				c0.2-2.5,0.3-5.1,0.5-7.1c0.2-1.8,0.3-3,0.5-3.6c0.2-0.7,0.4-0.8,0.6-0.5c0.2,0.4,0.4,1.2,0.6,2.4c0.1,0.8,0.3,1.6,0.4,2.4
				C133.5,49.2,133.5,49.3,133.5,49.4C133.5,49.4,133.5,49.4,133.5,49.4z"/>
			<path class="st9" d="M133.5,49.4c-0.1-0.6-0.2-1.2-0.3-1.7c-0.1-0.6-0.3-1.1-0.4-1.5c-0.2-0.7-0.4-0.9-0.6-0.8
				c-0.4,0.2-0.7,1.9-1,6.1c-0.2,2.1-0.3,4.3-0.4,6.5c-0.2,2.6-0.4,4.9-0.6,6.3c-0.2,1.4-0.4,1.2-0.6-0.7c-0.1-0.9-0.2-1.6-0.3-2.2
				c-0.1-0.6-0.2-0.7-0.3,0.6c-0.1,0.7-0.1,1.8-0.1,2.7c0,0.2,0,0.4,0,0.6c0.1-3.5,0.3-5.2,0.4-4.9c0.1,0.3,0.2,1.3,0.4,2.2
				c0.1,1,0.2,1.6,0.4,1.4c0.1-0.2,0.2-0.8,0.3-1.8c0.2-1.7,0.4-4.1,0.5-6.7c0.2-2.5,0.3-5.1,0.5-7.1c0.2-1.8,0.3-3,0.5-3.6
				c0.2-0.7,0.4-0.8,0.6-0.5c0.2,0.4,0.4,1.2,0.6,2.4c0.1,0.8,0.3,1.6,0.4,2.4C133.5,49.2,133.5,49.3,133.5,49.4
				C133.5,49.4,133.5,49.4,133.5,49.4z"/>
		</g>
		<g>
			
				<linearGradient id="SVGID_00000116937469803835281320000005900736927337489067_" gradientUnits="userSpaceOnUse" x1="127.5311" y1="54.768" x2="134.7567" y2="54.768">
				<stop  offset="0" style="stop-color:#49C0B8"/>
				<stop  offset="9.464668e-02" style="stop-color:#4EBDB6"/>
				<stop  offset="0.2085" style="stop-color:#5DB4B2"/>
				<stop  offset="0.3323" style="stop-color:#75A5AA"/>
				<stop  offset="0.463" style="stop-color:#9790A0"/>
				<stop  offset="0.5979" style="stop-color:#C27592"/>
				<stop  offset="0.6901" style="stop-color:#E46088"/>
			</linearGradient>
			<path style="fill:url(#SVGID_00000116937469803835281320000005900736927337489067_);" d="M134.8,48.9c-0.2-0.6-0.3-1.3-0.5-1.8
				c-0.2-0.6-0.4-1.2-0.6-1.7c-0.3-0.7-0.6-1-0.8-0.9c-0.5,0.2-1.1,2.1-1.5,6.7c-0.2,2.3-0.5,4.7-0.7,7.1c-0.3,2.9-0.6,5.4-0.9,6.8
				c-0.3,1.5-0.7,1.3-1-0.7c-0.1-0.9-0.3-1.8-0.4-2.4c-0.2-0.7-0.3-0.8-0.5,0.7c-0.1,0.8-0.1,1.9-0.2,2.9c0,0.2,0,0.4,0,0.7
				c0.1-3.8,0.4-5.7,0.6-5.3c0.2,0.3,0.4,1.4,0.6,2.4c0.2,1,0.4,1.7,0.6,1.5c0.2-0.2,0.4-0.9,0.5-2c0.3-1.8,0.5-4.5,0.8-7.2
				c0.3-2.8,0.5-5.6,0.8-7.7c0.3-2,0.5-3.2,0.8-4c0.3-0.8,0.6-0.9,0.9-0.5c0.3,0.4,0.6,1.3,1,2.6c0.2,0.8,0.4,1.8,0.6,2.6
				C134.7,48.7,134.7,48.8,134.8,48.9C134.8,48.9,134.8,48.9,134.8,48.9z"/>
			<path class="st11" d="M134.8,48.9c-0.2-0.6-0.3-1.3-0.5-1.8c-0.2-0.6-0.4-1.2-0.6-1.7c-0.3-0.7-0.6-1-0.8-0.9
				c-0.5,0.2-1.1,2.1-1.5,6.7c-0.2,2.3-0.5,4.7-0.7,7.1c-0.3,2.9-0.6,5.4-0.9,6.8c-0.3,1.5-0.7,1.3-1-0.7c-0.1-0.9-0.3-1.8-0.4-2.4
				c-0.2-0.7-0.3-0.8-0.5,0.7c-0.1,0.8-0.1,1.9-0.2,2.9c0,0.2,0,0.4,0,0.7c0.1-3.8,0.4-5.7,0.6-5.3c0.2,0.3,0.4,1.4,0.6,2.4
				c0.2,1,0.4,1.7,0.6,1.5c0.2-0.2,0.4-0.9,0.5-2c0.3-1.8,0.5-4.5,0.8-7.2c0.3-2.8,0.5-5.6,0.8-7.7c0.3-2,0.5-3.2,0.8-4
				c0.3-0.8,0.6-0.9,0.9-0.5c0.3,0.4,0.6,1.3,1,2.6c0.2,0.8,0.4,1.8,0.6,2.6C134.7,48.7,134.7,48.8,134.8,48.9
				C134.8,48.9,134.8,48.9,134.8,48.9z"/>
		</g>
		<g>
			
				<linearGradient id="SVGID_00000110437041190104621100000010213084353402661785_" gradientUnits="userSpaceOnUse" x1="125.6037" y1="54.741" x2="136.6987" y2="54.741">
				<stop  offset="0" style="stop-color:#49C0B8"/>
				<stop  offset="9.464668e-02" style="stop-color:#4EBDB6"/>
				<stop  offset="0.2085" style="stop-color:#5DB4B2"/>
				<stop  offset="0.3323" style="stop-color:#75A5AA"/>
				<stop  offset="0.463" style="stop-color:#9790A0"/>
				<stop  offset="0.5979" style="stop-color:#C27592"/>
				<stop  offset="0.6901" style="stop-color:#E46088"/>
			</linearGradient>
			<path style="fill:url(#SVGID_00000110437041190104621100000010213084353402661785_);" d="M136.7,48.4c-0.3-0.7-0.5-1.4-0.8-2
				c-0.3-0.7-0.6-1.3-0.9-1.8c-0.4-0.8-0.9-1.1-1.3-0.9c-0.8,0.2-1.6,2.3-2.3,7.2c-0.4,2.5-0.7,5.1-1,7.7c-0.4,3.1-0.8,5.8-1.3,7.4
				c-0.5,1.7-1,1.4-1.5-0.8c-0.2-1-0.5-1.9-0.7-2.6c-0.3-0.8-0.5-0.8-0.7,0.7c-0.1,0.8-0.2,2.1-0.3,3.2c0,0.2,0,0.4-0.1,0.8
				c0.2-4.1,0.6-6.1,1-5.8c0.3,0.3,0.6,1.5,0.9,2.6c0.3,1.1,0.6,1.8,0.9,1.6c0.3-0.2,0.5-1,0.8-2.1c0.4-1.9,0.8-4.9,1.2-7.9
				c0.4-3,0.8-6.1,1.2-8.4c0.4-2.1,0.8-3.5,1.2-4.3c0.5-0.9,0.9-1,1.4-0.6c0.5,0.4,1,1.4,1.5,2.8c0.3,0.9,0.6,1.9,0.9,2.9
				C136.7,48.2,136.7,48.3,136.7,48.4C136.7,48.4,136.7,48.4,136.7,48.4z"/>
			<path class="st13" d="M136.7,48.4c-0.3-0.7-0.5-1.4-0.8-2c-0.3-0.7-0.6-1.3-0.9-1.8c-0.4-0.8-0.9-1.1-1.3-0.9
				c-0.8,0.2-1.6,2.3-2.3,7.2c-0.4,2.5-0.7,5.1-1,7.7c-0.4,3.1-0.8,5.8-1.3,7.4c-0.5,1.7-1,1.4-1.5-0.8c-0.2-1-0.5-1.9-0.7-2.6
				c-0.3-0.8-0.5-0.8-0.7,0.7c-0.1,0.8-0.2,2.1-0.3,3.2c0,0.2,0,0.4-0.1,0.8c0.2-4.1,0.6-6.1,1-5.8c0.3,0.3,0.6,1.5,0.9,2.6
				c0.3,1.1,0.6,1.8,0.9,1.6c0.3-0.2,0.5-1,0.8-2.1c0.4-1.9,0.8-4.9,1.2-7.9c0.4-3,0.8-6.1,1.2-8.4c0.4-2.1,0.8-3.5,1.2-4.3
				c0.5-0.9,0.9-1,1.4-0.6c0.5,0.4,1,1.4,1.5,2.8c0.3,0.9,0.6,1.9,0.9,2.9C136.7,48.2,136.7,48.3,136.7,48.4
				C136.7,48.4,136.7,48.4,136.7,48.4z"/>
		</g>
		<g>
			
				<linearGradient id="SVGID_00000126308261629586994150000003627970325078534317_" gradientUnits="userSpaceOnUse" x1="122.6441" y1="54.7117" x2="139.6808" y2="54.7117">
				<stop  offset="0" style="stop-color:#49C0B8"/>
				<stop  offset="9.464668e-02" style="stop-color:#4EBDB6"/>
				<stop  offset="0.2085" style="stop-color:#5DB4B2"/>
				<stop  offset="0.3323" style="stop-color:#75A5AA"/>
				<stop  offset="0.463" style="stop-color:#9790A0"/>
				<stop  offset="0.5979" style="stop-color:#C27592"/>
				<stop  offset="0.6901" style="stop-color:#E46088"/>
			</linearGradient>
			<path style="fill:url(#SVGID_00000126308261629586994150000003627970325078534317_);" d="M139.7,47.8c-0.4-0.7-0.8-1.5-1.2-2.2
				c-0.5-0.7-0.9-1.4-1.4-2c-0.7-0.8-1.3-1.1-2-1c-1.3,0.3-2.5,2.5-3.6,7.9c-0.5,2.7-1.1,5.6-1.6,8.4c-0.6,3.4-1.3,6.3-2,8
				c-0.8,1.8-1.6,1.6-2.3-0.9c-0.3-1.1-0.7-2.1-1.1-2.9c-0.4-0.8-0.8-0.9-1.1,0.8c-0.2,0.9-0.3,2.3-0.5,3.4c0,0.2-0.1,0.5-0.1,0.8
				c0.3-4.4,0.9-6.7,1.5-6.2c0.5,0.3,0.9,1.6,1.3,2.8c0.4,1.2,0.9,2,1.4,1.8c0.4-0.2,0.8-1.1,1.2-2.3c0.7-2.1,1.3-5.3,1.9-8.5
				c0.6-3.3,1.2-6.6,1.8-9.1c0.6-2.3,1.2-3.8,1.9-4.7c0.7-1,1.4-1,2.2-0.6c0.8,0.5,1.5,1.5,2.3,3c0.5,1,1,2.1,1.5,3.1
				C139.6,47.6,139.7,47.7,139.7,47.8C139.7,47.8,139.7,47.8,139.7,47.8z"/>
			<path class="st15" d="M139.7,47.8c-0.4-0.7-0.8-1.5-1.2-2.2c-0.5-0.7-0.9-1.4-1.4-2c-0.7-0.8-1.3-1.1-2-1
				c-1.3,0.3-2.5,2.5-3.6,7.9c-0.5,2.7-1.1,5.6-1.6,8.4c-0.6,3.4-1.3,6.3-2,8c-0.8,1.8-1.6,1.6-2.3-0.9c-0.3-1.1-0.7-2.1-1.1-2.9
				c-0.4-0.8-0.8-0.9-1.1,0.8c-0.2,0.9-0.3,2.3-0.5,3.4c0,0.2-0.1,0.5-0.1,0.8c0.3-4.4,0.9-6.7,1.5-6.2c0.5,0.3,0.9,1.6,1.3,2.8
				c0.4,1.2,0.9,2,1.4,1.8c0.4-0.2,0.8-1.1,1.2-2.3c0.7-2.1,1.3-5.3,1.9-8.5c0.6-3.3,1.2-6.6,1.8-9.1c0.6-2.3,1.2-3.8,1.9-4.7
				c0.7-1,1.4-1,2.2-0.6c0.8,0.5,1.5,1.5,2.3,3c0.5,1,1,2.1,1.5,3.1C139.6,47.6,139.7,47.7,139.7,47.8
				C139.7,47.8,139.7,47.8,139.7,47.8z"/>
		</g>
		<g>
			
				<linearGradient id="SVGID_00000031901574756040158890000008747656052444049555_" gradientUnits="userSpaceOnUse" x1="118.0996" y1="54.6799" x2="144.2599" y2="54.6799">
				<stop  offset="0" style="stop-color:#49C0B8"/>
				<stop  offset="9.464668e-02" style="stop-color:#4EBDB6"/>
				<stop  offset="0.2085" style="stop-color:#5DB4B2"/>
				<stop  offset="0.3323" style="stop-color:#75A5AA"/>
				<stop  offset="0.463" style="stop-color:#9790A0"/>
				<stop  offset="0.5979" style="stop-color:#C27592"/>
				<stop  offset="0.6901" style="stop-color:#E46088"/>
			</linearGradient>
			<path style="fill:url(#SVGID_00000031901574756040158890000008747656052444049555_);" d="M144.3,47.2c-0.6-0.8-1.3-1.6-1.9-2.3
				c-0.7-0.8-1.4-1.5-2.2-2.2c-1-0.9-2-1.2-3.1-1.1c-2,0.3-3.8,2.7-5.5,8.5c-0.8,2.9-1.7,6-2.5,9.1c-1,3.7-2,6.9-3.1,8.7
				c-1.2,2-2.4,1.7-3.6-0.9c-0.5-1.2-1.1-2.3-1.6-3.1c-0.6-0.9-1.2-1-1.7,0.9c-0.3,1-0.5,2.5-0.8,3.7c0,0.2-0.1,0.5-0.2,0.9
				c0.5-4.8,1.4-7.2,2.3-6.8c0.7,0.4,1.4,1.8,2,3.1c0.7,1.3,1.4,2.2,2.1,1.9c0.7-0.2,1.3-1.2,1.9-2.5c1.1-2.3,2-5.7,2.9-9.3
				c0.9-3.5,1.8-7.1,2.8-9.9c0.9-2.5,1.9-4.1,2.9-5.1c1.1-1,2.2-1.1,3.3-0.7c1.2,0.5,2.3,1.7,3.5,3.3c0.7,1.1,1.5,2.3,2.2,3.4
				C144.2,47,144.2,47,144.3,47.2C144.3,47.2,144.3,47.2,144.3,47.2z"/>
			<path class="st17" d="M144.3,47.2c-0.6-0.8-1.3-1.6-1.9-2.3c-0.7-0.8-1.4-1.5-2.2-2.2c-1-0.9-2-1.2-3.1-1.1
				c-2,0.3-3.8,2.7-5.5,8.5c-0.8,2.9-1.7,6-2.5,9.1c-1,3.7-2,6.9-3.1,8.7c-1.2,2-2.4,1.7-3.6-0.9c-0.5-1.2-1.1-2.3-1.6-3.1
				c-0.6-0.9-1.2-1-1.7,0.9c-0.3,1-0.5,2.5-0.8,3.7c0,0.2-0.1,0.5-0.2,0.9c0.5-4.8,1.4-7.2,2.3-6.8c0.7,0.4,1.4,1.8,2,3.1
				c0.7,1.3,1.4,2.2,2.1,1.9c0.7-0.2,1.3-1.2,1.9-2.5c1.1-2.3,2-5.7,2.9-9.3c0.9-3.5,1.8-7.1,2.8-9.9c0.9-2.5,1.9-4.1,2.9-5.1
				c1.1-1,2.2-1.1,3.3-0.7c1.2,0.5,2.3,1.7,3.5,3.3c0.7,1.1,1.5,2.3,2.2,3.4C144.2,47,144.2,47,144.3,47.2
				C144.3,47.2,144.3,47.2,144.3,47.2z"/>
		</g>
		<g>
			
				<linearGradient id="SVGID_00000013883034854927838490000000655976934373441950_" gradientUnits="userSpaceOnUse" x1="111.1214" y1="54.6453" x2="151.2911" y2="54.6453">
				<stop  offset="0" style="stop-color:#49C0B8"/>
				<stop  offset="9.464668e-02" style="stop-color:#4EBDB6"/>
				<stop  offset="0.2085" style="stop-color:#5DB4B2"/>
				<stop  offset="0.3323" style="stop-color:#75A5AA"/>
				<stop  offset="0.463" style="stop-color:#9790A0"/>
				<stop  offset="0.5979" style="stop-color:#C27592"/>
				<stop  offset="0.6901" style="stop-color:#E46088"/>
			</linearGradient>
			<path style="fill:url(#SVGID_00000013883034854927838490000000655976934373441950_);" d="M151.3,46.5c-1-0.9-1.9-1.8-2.9-2.5
				c-1.1-0.9-2.2-1.6-3.3-2.3c-1.6-1-3.1-1.3-4.7-1.2c-3,0.3-5.9,2.9-8.5,9.3c-1.3,3.2-2.5,6.6-3.8,9.9c-1.5,4-3.1,7.5-4.8,9.5
				c-1.9,2.1-3.7,1.8-5.5-1c-0.8-1.3-1.6-2.5-2.5-3.4c-0.9-1-1.8-1.1-2.7,0.9c-0.4,1.1-0.8,2.7-1.2,4.1c-0.1,0.3-0.1,0.5-0.3,1
				c0.8-5.2,2.1-7.9,3.6-7.4c1.1,0.4,2.1,1.9,3.1,3.4c1,1.5,2.1,2.4,3.2,2.1c1-0.3,2-1.3,2.9-2.7c1.6-2.5,3-6.2,4.5-10.1
				c1.4-3.8,2.8-7.8,4.4-10.8c1.4-2.7,2.9-4.5,4.4-5.5c1.7-1.1,3.4-1.2,5.1-0.7c1.8,0.5,3.6,1.8,5.3,3.6c1.1,1.2,2.3,2.4,3.4,3.7
				C151.2,46.3,151.2,46.4,151.3,46.5C151.3,46.5,151.3,46.5,151.3,46.5z"/>
			<path class="st19" d="M151.3,46.5c-1-0.9-1.9-1.8-2.9-2.5c-1.1-0.9-2.2-1.6-3.3-2.3c-1.6-1-3.1-1.3-4.7-1.2
				c-3,0.3-5.9,2.9-8.5,9.3c-1.3,3.2-2.5,6.6-3.8,9.9c-1.5,4-3.1,7.5-4.8,9.5c-1.9,2.1-3.7,1.8-5.5-1c-0.8-1.3-1.6-2.5-2.5-3.4
				c-0.9-1-1.8-1.1-2.7,0.9c-0.4,1.1-0.8,2.7-1.2,4.1c-0.1,0.3-0.1,0.5-0.3,1c0.8-5.2,2.1-7.9,3.6-7.4c1.1,0.4,2.1,1.9,3.1,3.4
				c1,1.5,2.1,2.4,3.2,2.1c1-0.3,2-1.3,2.9-2.7c1.6-2.5,3-6.2,4.5-10.1c1.4-3.8,2.8-7.8,4.4-10.8c1.4-2.7,2.9-4.5,4.4-5.5
				c1.7-1.1,3.4-1.2,5.1-0.7c1.8,0.5,3.6,1.8,5.3,3.6c1.1,1.2,2.3,2.4,3.4,3.7C151.2,46.3,151.2,46.4,151.3,46.5
				C151.3,46.5,151.3,46.5,151.3,46.5z"/>
		</g>
		<g>
			
				<linearGradient id="SVGID_00000113312902571488652970000007628358758177768330_" gradientUnits="userSpaceOnUse" x1="100.4063" y1="54.6078" x2="162.0877" y2="54.6078">
				<stop  offset="0" style="stop-color:#49C0B8"/>
				<stop  offset="9.464668e-02" style="stop-color:#4EBDB6"/>
				<stop  offset="0.2085" style="stop-color:#5DB4B2"/>
				<stop  offset="0.3323" style="stop-color:#75A5AA"/>
				<stop  offset="0.463" style="stop-color:#9790A0"/>
				<stop  offset="0.5979" style="stop-color:#C27592"/>
				<stop  offset="0.6901" style="stop-color:#E46088"/>
			</linearGradient>
			<path style="fill:url(#SVGID_00000113312902571488652970000007628358758177768330_);" d="M162.1,45.8c-1.5-0.9-3-1.9-4.5-2.8
				c-1.7-0.9-3.4-1.8-5.1-2.5c-2.4-1.1-4.8-1.5-7.2-1.3c-4.6,0.3-9,3.2-13,10.1c-2,3.4-3.9,7.1-5.8,10.7c-2.3,4.3-4.7,8.1-7.4,10.3
				c-2.9,2.3-5.7,2-8.4-1.1c-1.2-1.4-2.5-2.7-3.8-3.7c-1.4-1.1-2.8-1.1-4.1,1c-0.7,1.2-1.2,2.9-1.8,4.4c-0.1,0.3-0.2,0.6-0.4,1
				c1.2-5.7,3.3-8.5,5.5-8c1.7,0.4,3.3,2.1,4.8,3.6c1.6,1.6,3.2,2.6,4.9,2.3c1.5-0.3,3-1.4,4.5-3c2.5-2.7,4.7-6.8,6.9-10.9
				c2.2-4.2,4.3-8.4,6.7-11.7c2.2-3,4.4-4.9,6.8-6c2.6-1.2,5.2-1.3,7.8-0.8c2.8,0.6,5.5,2,8.2,3.9c1.8,1.3,3.5,2.7,5.3,4
				C161.9,45.5,162,45.6,162.1,45.8C162.1,45.7,162.1,45.8,162.1,45.8z"/>
			<path class="st21" d="M162.1,45.8c-1.5-0.9-3-1.9-4.5-2.8c-1.7-0.9-3.4-1.8-5.1-2.5c-2.4-1.1-4.8-1.5-7.2-1.3
				c-4.6,0.3-9,3.2-13,10.1c-2,3.4-3.9,7.1-5.8,10.7c-2.3,4.3-4.7,8.1-7.4,10.3c-2.9,2.3-5.7,2-8.4-1.1c-1.2-1.4-2.5-2.7-3.8-3.7
				c-1.4-1.1-2.8-1.1-4.1,1c-0.7,1.2-1.2,2.9-1.8,4.4c-0.1,0.3-0.2,0.6-0.4,1c1.2-5.7,3.3-8.5,5.5-8c1.7,0.4,3.3,2.1,4.8,3.6
				c1.6,1.6,3.2,2.6,4.9,2.3c1.5-0.3,3-1.4,4.5-3c2.5-2.7,4.7-6.8,6.9-10.9c2.2-4.2,4.3-8.4,6.7-11.7c2.2-3,4.4-4.9,6.8-6
				c2.6-1.2,5.2-1.3,7.8-0.8c2.8,0.6,5.5,2,8.2,3.9c1.8,1.3,3.5,2.7,5.3,4C161.9,45.5,162,45.6,162.1,45.8
				C162.1,45.7,162.1,45.8,162.1,45.8z"/>
		</g>
		<g>
			
				<linearGradient id="SVGID_00000085237101034725756860000017462021990575648142_" gradientUnits="userSpaceOnUse" x1="83.953" y1="54.567" x2="178.6662" y2="54.567">
				<stop  offset="0" style="stop-color:#49C0B8"/>
				<stop  offset="9.464668e-02" style="stop-color:#4EBDB6"/>
				<stop  offset="0.2085" style="stop-color:#5DB4B2"/>
				<stop  offset="0.3323" style="stop-color:#75A5AA"/>
				<stop  offset="0.463" style="stop-color:#9790A0"/>
				<stop  offset="0.5979" style="stop-color:#C27592"/>
				<stop  offset="0.6901" style="stop-color:#E46088"/>
			</linearGradient>
			<path style="fill:url(#SVGID_00000085237101034725756860000017462021990575648142_);" d="M178.6,45c-2.3-1-4.6-2.1-6.9-3
				c-2.6-1-5.2-1.9-7.9-2.8c-3.7-1.2-7.4-1.6-11.1-1.4c-7.1,0.4-13.8,3.5-20,10.9c-3,3.7-6,7.7-9,11.7c-3.5,4.7-7.2,8.8-11.4,11.2
				c-4.4,2.5-8.7,2.2-13-1.2c-1.9-1.5-3.9-2.9-5.9-4c-2.1-1.2-4.3-1.2-6.3,1.1c-1,1.3-1.9,3.2-2.8,4.8c-0.2,0.3-0.3,0.6-0.6,1.1
				c1.9-6.2,5.1-9.3,8.4-8.7c2.6,0.5,5,2.3,7.4,4c2.5,1.7,5,2.8,7.6,2.4c2.4-0.3,4.6-1.5,6.9-3.2c3.8-2.9,7.2-7.3,10.5-11.9
				c3.3-4.5,6.6-9.1,10.3-12.7c3.3-3.2,6.8-5.3,10.5-6.5c4-1.3,8-1.5,12-0.8c4.2,0.6,8.4,2.1,12.6,4.2c2.7,1.4,5.4,2.9,8.1,4.3
				c0.2,0.1,0.3,0.2,0.5,0.3C178.7,44.9,178.7,45,178.6,45z"/>
			<path class="st23" d="M178.6,45c-2.3-1-4.6-2.1-6.9-3c-2.6-1-5.2-1.9-7.9-2.8c-3.7-1.2-7.4-1.6-11.1-1.4
				c-7.1,0.4-13.8,3.5-20,10.9c-3,3.7-6,7.7-9,11.7c-3.5,4.7-7.2,8.8-11.4,11.2c-4.4,2.5-8.7,2.2-13-1.2c-1.9-1.5-3.9-2.9-5.9-4
				c-2.1-1.2-4.3-1.2-6.3,1.1c-1,1.3-1.9,3.2-2.8,4.8c-0.2,0.3-0.3,0.6-0.6,1.1c1.9-6.2,5.1-9.3,8.4-8.7c2.6,0.5,5,2.3,7.4,4
				c2.5,1.7,5,2.8,7.6,2.4c2.4-0.3,4.6-1.5,6.9-3.2c3.8-2.9,7.2-7.3,10.5-11.9c3.3-4.5,6.6-9.1,10.3-12.7c3.3-3.2,6.8-5.3,10.5-6.5
				c4-1.3,8-1.5,12-0.8c4.2,0.6,8.4,2.1,12.6,4.2c2.7,1.4,5.4,2.9,8.1,4.3c0.2,0.1,0.3,0.2,0.5,0.3C178.7,44.9,178.7,45,178.6,45z"
				/>
		</g>
		<g>
			
				<linearGradient id="SVGID_00000060722550289025608130000006802427468039899535_" gradientUnits="userSpaceOnUse" x1="58.6886" y1="54.5228" x2="204.1227" y2="54.5228">
				<stop  offset="0" style="stop-color:#49C0B8"/>
				<stop  offset="9.464668e-02" style="stop-color:#4EBDB6"/>
				<stop  offset="0.2085" style="stop-color:#5DB4B2"/>
				<stop  offset="0.3323" style="stop-color:#75A5AA"/>
				<stop  offset="0.463" style="stop-color:#9790A0"/>
				<stop  offset="0.5979" style="stop-color:#C27592"/>
				<stop  offset="0.6901" style="stop-color:#E46088"/>
			</linearGradient>
			<path style="fill:url(#SVGID_00000060722550289025608130000006802427468039899535_);" d="M204.1,44.1c-3.5-1.1-7-2.3-10.6-3.3
				c-4-1.1-8-2.1-12.1-3c-5.7-1.3-11.4-1.7-17.1-1.5c-10.9,0.4-21.3,3.7-30.6,11.9c-4.7,4-9.2,8.4-13.8,12.7
				c-5.4,5.1-11.1,9.6-17.4,12.1c-6.7,2.7-13.3,2.3-19.9-1.3c-2.9-1.6-5.9-3.2-9-4.3c-3.3-1.3-6.7-1.4-9.7,1.2
				C62.3,70,61,72,59.6,73.8c-0.3,0.3-0.5,0.7-0.9,1.2c2.8-6.7,7.8-10.1,13-9.4c4,0.5,7.7,2.5,11.4,4.3c3.8,1.9,7.6,3,11.6,2.7
				c3.6-0.3,7.1-1.6,10.5-3.5c5.8-3.2,11-8,16.2-12.9c5.1-4.9,10.2-9.9,15.8-13.8c5.1-3.5,10.5-5.7,16.1-7.1
				c6.1-1.4,12.3-1.6,18.4-0.9c6.5,0.7,13,2.3,19.3,4.6c4.2,1.5,8.3,3.1,12.4,4.7c0.3,0.1,0.5,0.2,0.8,0.3
				C204.1,44.1,204.1,44.1,204.1,44.1z"/>
			<path class="st25" d="M204.1,44.1c-3.5-1.1-7-2.3-10.6-3.3c-4-1.1-8-2.1-12.1-3c-5.7-1.3-11.4-1.7-17.1-1.5
				c-10.9,0.4-21.3,3.7-30.6,11.9c-4.7,4-9.2,8.4-13.8,12.7c-5.4,5.1-11.1,9.6-17.4,12.1c-6.7,2.7-13.3,2.3-19.9-1.3
				c-2.9-1.6-5.9-3.2-9-4.3c-3.3-1.3-6.7-1.4-9.7,1.2C62.3,70,61,72,59.6,73.8c-0.3,0.3-0.5,0.7-0.9,1.2c2.8-6.7,7.8-10.1,13-9.4
				c4,0.5,7.7,2.5,11.4,4.3c3.8,1.9,7.6,3,11.6,2.7c3.6-0.3,7.1-1.6,10.5-3.5c5.8-3.2,11-8,16.2-12.9c5.1-4.9,10.2-9.9,15.8-13.8
				c5.1-3.5,10.5-5.7,16.1-7.1c6.1-1.4,12.3-1.6,18.4-0.9c6.5,0.7,13,2.3,19.3,4.6c4.2,1.5,8.3,3.1,12.4,4.7
				c0.3,0.1,0.5,0.2,0.8,0.3C204.1,44.1,204.1,44.1,204.1,44.1z"/>
		</g>
		<g>
			
				<linearGradient id="SVGID_00000026159160300422427790000016526872453773145234_" gradientUnits="userSpaceOnUse" x1="19.8945" y1="54.4747" x2="243.2119" y2="54.4747">
				<stop  offset="0" style="stop-color:#49C0B8"/>
				<stop  offset="9.464668e-02" style="stop-color:#4EBDB6"/>
				<stop  offset="0.2085" style="stop-color:#5DB4B2"/>
				<stop  offset="0.3323" style="stop-color:#75A5AA"/>
				<stop  offset="0.463" style="stop-color:#9790A0"/>
				<stop  offset="0.5979" style="stop-color:#C27592"/>
				<stop  offset="0.6901" style="stop-color:#E46088"/>
			</linearGradient>
			<path style="fill:url(#SVGID_00000026159160300422427790000016526872453773145234_);" d="M243.2,43.2c-5.4-1.2-10.8-2.5-16.2-3.5
				c-6.2-1.2-12.4-2.3-18.6-3.3c-8.7-1.4-17.4-1.9-26.2-1.7c-16.7,0.4-32.6,4.1-47,12.9c-7.2,4.4-14.1,9.1-21.1,13.8
				c-8.4,5.5-17,10.4-26.8,13.2c-10.4,3-20.5,2.5-30.5-1.4c-4.5-1.8-9.1-3.4-13.8-4.7c-5-1.4-10.2-1.5-14.9,1.3
				c-2.5,1.5-4.5,3.7-6.7,5.6c-0.4,0.4-0.8,0.7-1.4,1.3c4.4-7.3,11.9-10.9,19.9-10.3c6.1,0.5,11.8,2.7,17.5,4.7
				c5.8,2,11.7,3.3,17.8,2.9c5.6-0.4,11-1.8,16.2-3.8c9-3.5,17-8.7,24.8-14c7.8-5.3,15.6-10.8,24.2-15c7.8-3.8,16.1-6.2,24.7-7.7
				c9.4-1.6,18.9-1.7,28.3-1c10,0.8,19.9,2.5,29.6,5c6.4,1.6,12.7,3.4,19.1,5.1c0.4,0.1,0.8,0.2,1.2,0.4
				C243.2,43.1,243.2,43.1,243.2,43.2z"/>
			<path class="st27" d="M243.2,43.2c-5.4-1.2-10.8-2.5-16.2-3.5c-6.2-1.2-12.4-2.3-18.6-3.3c-8.7-1.4-17.4-1.9-26.2-1.7
				c-16.7,0.4-32.6,4.1-47,12.9c-7.2,4.4-14.1,9.1-21.1,13.8c-8.4,5.5-17,10.4-26.8,13.2c-10.4,3-20.5,2.5-30.5-1.4
				c-4.5-1.8-9.1-3.4-13.8-4.7c-5-1.4-10.2-1.5-14.9,1.3c-2.5,1.5-4.5,3.7-6.7,5.6c-0.4,0.4-0.8,0.7-1.4,1.3
				c4.4-7.3,11.9-10.9,19.9-10.3c6.1,0.5,11.8,2.7,17.5,4.7c5.8,2,11.7,3.3,17.8,2.9c5.6-0.4,11-1.8,16.2-3.8c9-3.5,17-8.7,24.8-14
				c7.8-5.3,15.6-10.8,24.2-15c7.8-3.8,16.1-6.2,24.7-7.7c9.4-1.6,18.9-1.7,28.3-1c10,0.8,19.9,2.5,29.6,5
				c6.4,1.6,12.7,3.4,19.1,5.1c0.4,0.1,0.8,0.2,1.2,0.4C243.2,43.1,243.2,43.1,243.2,43.2z"/>
		</g>
	</g>
	
		<linearGradient id="SVGID_00000101100752362180100740000012130666576773750451_" gradientUnits="userSpaceOnUse" x1="19.8229" y1="54.4074" x2="243.1404" y2="54.4074">
		<stop  offset="0" style="stop-color:#49C0B8"/>
		<stop  offset="9.464668e-02" style="stop-color:#4EBDB6"/>
		<stop  offset="0.2085" style="stop-color:#5DB4B2"/>
		<stop  offset="0.3323" style="stop-color:#75A5AA"/>
		<stop  offset="0.463" style="stop-color:#9790A0"/>
		<stop  offset="0.5979" style="stop-color:#C27592"/>
		<stop  offset="0.6901" style="stop-color:#E46088"/>
	</linearGradient>
	
		<path style="fill:url(#SVGID_00000101100752362180100740000012130666576773750451_);stroke:#666666;stroke-width:0.5;stroke-miterlimit:10;" d="
		M243.1,43.1c-5.4-1.2-10.8-2.5-16.2-3.5c-6.2-1.2-12.4-2.3-18.6-3.3c-8.7-1.4-17.4-1.9-26.2-1.7c-16.7,0.4-32.6,4.1-47,12.9
		c-7.2,4.4-14.1,9.1-21.1,13.8c-8.4,5.5-17,10.4-26.8,13.2c-10.4,3-20.5,2.5-30.5-1.4c-4.5-1.8-9.1-3.4-13.8-4.7
		c-5-1.4-10.2-1.5-14.9,1.3c-2.5,1.5-4.5,3.7-6.7,5.6c-0.4,0.4-0.8,0.7-1.4,1.3c4.4-7.3,11.9-10.9,19.9-10.3
		c6.1,0.5,11.8,2.7,17.5,4.7c5.8,2,11.7,3.3,17.8,2.9c5.6-0.4,11-1.8,16.2-3.8c9-3.5,17-8.7,24.8-14c7.8-5.3,15.6-10.8,24.2-15
		c7.8-3.8,16.1-6.2,24.7-7.7c9.4-1.6,18.9-1.7,28.3-1c10,0.8,19.9,2.5,29.6,5c6.4,1.6,12.7,3.4,19.1,5.1c0.4,0.1,0.8,0.2,1.2,0.4
		C243.1,43,243.1,43.1,243.1,43.1z"/>
</g>
<linearGradient id="SVGID_00000178178502089753980970000010503481577621570448_" gradientUnits="userSpaceOnUse" x1="19.9567" y1="54.4976" x2="243.2742" y2="54.4976">
	<stop  offset="0" style="stop-color:#49C0B8"/>
	<stop  offset="9.464668e-02" style="stop-color:#4EBDB6"/>
	<stop  offset="0.2085" style="stop-color:#5DB4B2"/>
	<stop  offset="0.3323" style="stop-color:#75A5AA"/>
	<stop  offset="0.463" style="stop-color:#9790A0"/>
	<stop  offset="0.5979" style="stop-color:#C27592"/>
	<stop  offset="0.6901" style="stop-color:#E46088"/>
</linearGradient>
<path style="fill:url(#SVGID_00000178178502089753980970000010503481577621570448_);stroke:#7FC7AF;stroke-width:0.25;stroke-miterlimit:10;" d="
	M243.2,43.2c-5.4-1.2-10.8-2.5-16.2-3.5c-6.2-1.2-12.4-2.3-18.6-3.3c-8.7-1.4-17.4-1.9-26.2-1.7c-16.7,0.4-32.6,4.1-47,12.9
	c-7.2,4.4-14.1,9.1-21.1,13.8c-8.4,5.5-17,10.4-26.8,13.2c-10.4,3-20.5,2.5-30.5-1.4c-4.5-1.8-9.1-3.4-13.8-4.7
	c-5-1.4-10.2-1.5-14.9,1.3c-2.5,1.5-4.5,3.7-6.7,5.6c-0.4,0.4-0.8,0.7-1.4,1.3c4.4-7.3,11.9-10.9,19.9-10.3
	c6.1,0.5,11.8,2.7,17.5,4.7c5.8,2,11.7,3.3,17.8,2.9c5.6-0.4,11-1.8,16.2-3.8c9-3.5,17-8.7,24.8-14c7.8-5.3,15.6-10.8,24.2-15
	c7.8-3.8,16.1-6.2,24.7-7.7c9.4-1.6,18.9-1.7,28.3-1c10,0.8,19.9,2.5,29.6,5c6.4,1.6,12.7,3.4,19.1,5.1c0.4,0.1,0.8,0.2,1.2,0.4
	C243.3,43.1,243.2,43.2,243.2,43.2z"/>
<g>
	<path class="st30" d="M20.1,51.6c0,2.2,0.7,3.9,2.2,5.1c1.4,1.2,3.7,1.8,6.9,1.8c1.5,0,2.7-0.1,3.7-0.4c1-0.3,1.8-0.7,2.4-1.2
		c0.6-0.5,1.1-1,1.4-1.7s0.4-1.3,0.4-2c0-0.7-0.1-1.2-0.3-1.7c-0.2-0.5-0.5-0.9-1-1.3c-0.5-0.4-1.1-0.7-1.9-1
		c-0.8-0.3-1.8-0.6-3-0.8l-4.4-0.9c-1.3-0.3-2.4-0.6-3.3-0.9c-0.9-0.3-1.6-0.8-2.2-1.2c-0.6-0.5-1-1.1-1.2-1.7
		c-0.3-0.7-0.4-1.4-0.4-2.3c0-0.9,0.2-1.7,0.6-2.4c0.4-0.7,0.9-1.4,1.7-1.9c0.7-0.5,1.7-1,2.8-1.3c1.1-0.3,2.4-0.5,3.8-0.5
		c1.5,0,2.8,0.1,4,0.4c1.2,0.3,2.2,0.7,3.1,1.3c0.9,0.6,1.5,1.3,2,2.2c0.5,0.9,0.7,2,0.8,3.2h-1.5c0-0.7-0.2-1.4-0.4-2.1
		c-0.3-0.7-0.7-1.3-1.3-1.9c-0.6-0.6-1.4-1-2.4-1.4c-1-0.4-2.3-0.5-3.8-0.5c-1.4,0-2.6,0.1-3.6,0.4c-1,0.3-1.8,0.6-2.4,1
		c-0.6,0.4-1,0.9-1.3,1.5c-0.3,0.6-0.4,1.2-0.4,1.9c0,0.6,0.1,1.2,0.2,1.7c0.2,0.5,0.5,0.9,0.9,1.3c0.4,0.4,1,0.7,1.7,1
		c0.7,0.3,1.6,0.5,2.8,0.7l4.8,1c1.2,0.2,2.2,0.5,3.1,0.8c0.9,0.3,1.7,0.7,2.3,1.2c0.6,0.5,1.1,1.1,1.4,1.7c0.3,0.7,0.5,1.5,0.5,2.4
		c0,0.8-0.1,1.6-0.4,2.4c-0.3,0.8-0.8,1.5-1.5,2.1c-0.7,0.6-1.7,1.1-2.9,1.5c-1.2,0.4-2.7,0.6-4.6,0.6c-1.9,0-3.6-0.2-4.9-0.6
		c-1.4-0.4-2.5-1-3.3-1.7c-0.9-0.7-1.5-1.6-1.9-2.6s-0.6-2.2-0.6-3.4H20.1z"/>
	<polygon class="st30" points="41.7,35.9 43.2,35.9 43.2,49.4 60.1,35.9 62.5,35.9 50.3,45.6 63.4,59.4 61.3,59.4 49.1,46.5 
		43.2,51.3 43.2,59.4 41.7,59.4 	"/>
	<rect x="64.9" y="35.9" class="st30" width="1.5" height="23.5"/>
	<polygon class="st30" points="70.3,35.9 72.2,35.9 89.8,57.3 89.9,57.3 89.9,35.9 91.4,35.9 91.4,59.4 89.5,59.4 71.9,38 71.8,38 
		71.8,59.4 70.3,59.4 	"/>
</g>
</svg>
